PathFileType	4	(X/Y/Z)	C:\Users\Basilio\Documents\Thesis Gigler\squatting_fais\c3dfiles\019\SLS_back_pre4\markers_experimental.trc
DataRate	CameraRate	NumFrames	NumMarkers	Units	OrigDataRate	OrigDataStartFrame	OrigNumFrames
200.000000	200.000000	4	59	mm	200.000000	873	1397
Frame#	Time	FHD			LBHD			RBHD			C7			T10			CLAV			LSHO			LUUPA			LMUPA			LDUPA			LLEP			LMEP			LRAD			LUL			LRFIN			RSHO			RUPA1			RMUPA			RDUPA			RLEP			RMEP			RRAD			RUL			RUFIN			LASI			RASI			USACR			LSACR			RSACR			LTHI1			LTHI2			LTHI3			LTHI4			LLFC			LTIB1			LTIB2			LTIB3			LTIB4			LLMAL			LMMAL			LHEE			LMT1			LMT2			LMT5			RTHI2			RTHI4			RLFC			RTIB1			RTIB2			RTIB3			RTIB4			RLMAL			RMMAL			RHEE			RMT1			RMT2			RMT5			RTHI3			RTHI			
		X1	Y1	Z1	X2	Y2	Z2	X3	Y3	Z3	X4	Y4	Z4	X5	Y5	Z5	X6	Y6	Z6	X7	Y7	Z7	X8	Y8	Z8	X9	Y9	Z9	X10	Y10	Z10	X11	Y11	Z11	X12	Y12	Z12	X13	Y13	Z13	X14	Y14	Z14	X15	Y15	Z15	X16	Y16	Z16	X17	Y17	Z17	X18	Y18	Z18	X19	Y19	Z19	X20	Y20	Z20	X21	Y21	Z21	X22	Y22	Z22	X23	Y23	Z23	X24	Y24	Z24	X25	Y25	Z25	X26	Y26	Z26	X27	Y27	Z27	X28	Y28	Z28	X29	Y29	Z29	X30	Y30	Z30	X31	Y31	Z31	X32	Y32	Z32	X33	Y33	Z33	X34	Y34	Z34	X35	Y35	Z35	X36	Y36	Z36	X37	Y37	Z37	X38	Y38	Z38	X39	Y39	Z39	X40	Y40	Z40	X41	Y41	Z41	X42	Y42	Z42	X43	Y43	Z43	X44	Y44	Z44	X45	Y45	Z45	X46	Y46	Z46	X47	Y47	Z47	X48	Y48	Z48	X49	Y49	Z49	X50	Y50	Z50	X51	Y51	Z51	X52	Y52	Z52	X53	Y53	Z53	X54	Y54	Z54	X55	Y55	Z55	X56	Y56	Z56	X57	Y57	Z57	X58	Y58	Z58	X59	Y59	Z59	

874	4.365	-6.316912174224855	1269.932495117188	-649.1624755859376	-135.2796936035157	1250.627563476563	-793.7805786132815	-141.527587890625	1245.579711914063	-654.0394897460939	-199.1558990478516	1120.057006835938	-712.4717407226564	-387.9297180175782	915.8164672851565	-728.3517456054689	-83.96233367919923	1022.110168457031	-719.1240234375001	-116.8208465576172	1108.013793945313	-836.3837890625002	-3.858597517013551	1071.976196289063	-895.8366699218752	21.20063018798828	1057.657470703125	-856.4676513671877	60.94894409179689	1061.419311523438	-902.0716552734377	128.0876159667969	1023.122436523438	-937.9074707031252	119.7241821289063	965.5897216796877	-927.0814208984377	368.2907409667969	1027.880249023438	-861.2806396484377	375.8424682617188	984.6023559570315	-910.1317138671877	439.1267395019532	1049.1689453125	-866.5855712890627	-111.0467605590821	1094.972045898438	-607.4114379882814	-9.883663177490236	1027.392456054688	-498.8354492187501	18.44472312927246	1051.689453125	-531.7561035156251	57.82315063476564	1017.290466308594	-500.2221679687501	135.9550933837891	1002.467834472656	-512.6406860351564	123.1223449707032	948.0515747070315	-525.6998291015626	368.3387756347657	1040.828125	-604.0803222656251	389.6588745117189	995.8062744140627	-555.2249145507814	452.2128295898439	1058.67236328125	-595.1926879882814	-404.8791809082032	673.8692626953126	-859.1900634765627	-372.8595886230469	681.2798461914064	-660.7435302734376	-483.3428039550782	809.6975097656252	-743.3830566406251	-510.494110107422	787.272888183594	-768.7020263671877	-505.6292419433595	783.9666137695315	-712.6921386718751	-484.8276367187501	442.6390991210939	-940.2587890625002	-438.1879882812501	369.7992858886719	-944.651062011719	-394.513641357422	373.9034729003907	-927.4880371093752	-460.3335571289064	312.4985961914063	-937.523376464844	-466.7229309082032	235.2308807373047	-921.0383300781252	-574.1821899414064	156.4315338134766	-876.1660766601565	-622.6808471679689	208.5585479736329	-936.8759765625002	-624.1503906250001	176.9120635986328	-908.0014648437502	-700.4877929687501	180.9777526855469	-867.9057617187502	-832.2486572265627	253.2682342529297	-900.2603149414065	-817.2100830078127	247.8363189697266	-815.6820068359377	-864.043640136719	323.2800292968751	-858.263854980469	-899.7250976562502	118.4977951049805	-796.2825927734377	-906.1414184570315	112.1185684204102	-840.200866699219	-931.7042236328127	148.4069519042969	-894.5103759765627	-310.2600708007813	578.6517944335939	-596.4027099609376	-254.7544250488282	517.2156982421876	-600.9274902343751	-158.4657592773438	409.539764404297	-655.9360961914064	-191.1657867431641	259.1494140625001	-736.5661010742189	-270.7861633300782	209.1876220703126	-676.2312011718751	-245.8124694824219	191.2203674316407	-715.9810791015626	-284.9234924316407	174.6547546386719	-757.2387695312501	-376.2740173339844	124.9119949340821	-706.4420166015626	-365.0717163085938	133.1870269775391	-784.3152465820315	-457.8357849121095	101.9860992431641	-760.6512451171876	-256.7893676757813	54.4998016357422	-787.0792236328127	-252.0455169677735	58.48983383178712	-741.6487426757814	-292.0938720703126	48.44542312622072	-686.7993164062501	-302.1792297363282	607.9830322265626	-616.4479980468751	-373.0362548828126	572.8209838867189	-578.9488525390626	
875	4.37	-6.209696769714357	1269.765258789063	-649.1174926757814	-135.1799468994141	1250.403198242188	-793.6873779296877	-141.3534545898438	1245.1845703125	-653.9635620117189	-198.9671783447266	1119.854614257813	-712.3248901367189	-387.8004760742189	915.6212158203127	-728.3189697265626	-83.66058349609376	1021.892272949219	-719.0792846679689	-116.6009674072266	1107.936401367188	-836.2047119140627	-3.552039861679078	1071.852416992188	-895.7368774414065	21.49300956726075	1057.570434570313	-856.4292602539065	61.22014617919923	1061.34619140625	-902.059509277344	128.4751892089844	1023.023498535156	-937.903747558594	120.0091934204102	965.5073852539065	-927.0902099609377	368.6159973144532	1027.704833984375	-861.2857055664065	376.0360717773438	984.5516357421877	-910.2301025390627	439.1211853027345	1049.05859375	-866.594665527344	-110.7629013061524	1095.0986328125	-607.7199096679689	-9.618644714355471	1027.136474609375	-498.9093627929689	18.73300743103028	1051.314453125	-531.9288330078126	58.04969406127931	1017.0869140625	-500.2304687500001	136.1550598144532	1002.256896972656	-512.7236328125001	123.3170700073242	947.8183593750002	-525.8869018554689	368.4339599609376	1040.567016601563	-604.3892822265626	389.9971923828126	995.6175537109377	-555.2807617187501	452.3736572265626	1058.563110351563	-595.2608642578126	-404.919158935547	673.6629638671876	-859.1975708007815	-372.8594360351563	680.9779663085939	-660.7831420898439	-483.3126525878907	809.5583496093752	-743.3553466796876	-510.5047607421876	787.133728027344	-768.7144165039065	-505.6057739257814	783.8103637695315	-712.6526489257814	-484.9954528808595	442.5149536132814	-940.2371826171877	-438.3346252441407	369.6557922363282	-944.690856933594	-394.6346130371095	373.8618469238282	-927.5438232421877	-460.4038085937501	312.3540954589844	-937.5131835937502	-466.7473144531251	235.0895690917969	-920.9821777343752	-574.2739257812501	155.4502258300782	-877.0986328125002	-622.7812500000001	208.3711700439454	-936.8091430664065	-624.0280761718751	176.5889282226563	-907.8090820312502	-700.5553588867189	180.6794128417969	-867.928894042969	-832.379333496094	252.9993896484376	-900.0557250976565	-817.3168945312502	247.6580505371094	-815.5225830078127	-864.012145996094	323.0613098144532	-858.1160278320315	-899.7963867187502	118.3560638427735	-796.0166625976565	-906.2883300781252	111.8937759399414	-839.9746093750002	-931.912048339844	148.2540588378907	-894.2258911132815	-310.2526855468751	578.4558105468751	-596.4318847656251	-254.6812744140626	517.1306762695314	-601.0435180664064	-158.3970489501953	409.5058898925782	-656.0734863281251	-191.1681213378907	259.1818847656251	-736.6820678710939	-270.7543640136719	209.161605834961	-676.3414916992189	-245.7351379394532	191.1961364746094	-716.1140136718751	-284.8915405273438	174.6761322021485	-757.3497314453126	-376.2026672363282	124.8864364624024	-706.4739379882814	-364.9257812500001	133.1492004394532	-784.4879150390627	-457.8202209472657	101.971664428711	-760.6689453125001	-256.7772827148438	54.49729156494142	-787.0747680664065	-252.0413818359376	58.49483489990236	-741.6883544921876	-292.0871887207032	48.44100952148439	-686.8511352539064	-302.0932312011719	607.8792114257814	-616.4468994140626	-372.9984130859376	572.7924804687501	-579.1090087890626	
876	4.375	-6.092613697052004	1269.564575195313	-649.1085205078126	-135.0555114746094	1250.142700195313	-793.6457519531252	-141.2916870117188	1244.904663085938	-653.9454345703126	-198.8596649169922	1119.600952148438	-712.3085327148439	-387.7771301269532	915.483825683594	-728.3046264648439	-83.48120880126955	1021.799438476563	-719.0497436523439	-116.2149200439453	1107.6142578125	-836.0706787109377	-3.333326101303101	1071.825561523438	-895.631774902344	21.73174285888672	1057.410400390625	-856.3342285156252	61.55282592773439	1061.306762695313	-901.9553222656252	128.6720581054688	1023.030639648438	-937.942321777344	120.2495574951172	965.4898681640627	-927.174499511719	368.9244079589844	1027.644775390625	-861.3107910156252	376.2728576660157	984.6226806640627	-910.328552246094	439.4316406250001	1049.114013671875	-866.5625000000002	-110.6307907104492	1095.011108398438	-607.7792358398439	-9.481967926025392	1026.916259765625	-498.8979797363282	18.81900787353516	1051.103759765625	-531.9030151367189	58.38111495971681	1017.052917480469	-500.3216857910157	136.4005279541016	1001.961486816406	-512.7316284179689	123.4407424926758	947.5885009765627	-525.8764648437501	372.7609558105469	1037.702758789063	-599.8811645507814	389.6660766601564	995.3948974609377	-556.2209472656251	452.415252685547	1058.387817382813	-595.6000366210939	-404.9357910156251	673.5520019531251	-859.197937011719	-372.8171691894532	680.8020629882814	-660.7432861328126	-483.3143310546876	809.512878417969	-743.3270874023439	-510.3934631347657	787.1203613281252	-768.6610107421877	-505.5614318847657	783.7325439453127	-712.6397705078126	-485.052215576172	442.4119567871095	-940.2130126953127	-438.3950805664064	369.5603637695313	-944.6699218750002	-394.6232910156251	373.7621459960938	-927.542419433594	-460.4557189941407	312.2702331542969	-937.4555664062502	-466.8738403320314	235.0214538574219	-920.9732055664065	-574.4589233398439	155.4274597167969	-877.035827636719	-622.8489379882814	208.1944885253907	-936.7141723632815	-624.0597534179689	176.3580474853516	-907.6875610351565	-700.5311279296876	180.5728607177735	-867.6182250976565	-832.4146118164065	252.6915588378907	-899.877624511719	-817.3829345703127	247.5288391113282	-815.312927246094	-864.023864746094	322.7968139648438	-857.992614746094	-899.741394042969	118.2891235351563	-795.7451782226565	-906.448669433594	111.8314437866211	-839.550231933594	-932.1170043945315	148.0903472900391	-893.859313964844	-310.2455139160157	578.3256835937501	-596.4467163085939	-254.6863403320313	517.0737304687501	-601.1077880859376	-158.4705963134766	409.5232238769532	-656.2669067382814	-191.161865234375	259.0997314453126	-736.7424926757814	-270.7233276367188	209.1593170166016	-676.3961791992189	-245.7677612304688	191.2526550292969	-716.1377563476564	-284.9464721679688	174.6963348388672	-757.3899536132814	-376.2058410644532	124.922607421875	-706.4643554687501	-365.0986022949219	133.2370300292969	-784.3347778320315	-457.8330078125001	101.9866104125977	-760.6400146484376	-256.7452697753907	54.43634414672853	-787.102966308594	-252.0453338623047	58.48596191406251	-741.6926269531251	-292.1064758300782	48.45706939697267	-686.8512573242189	-302.0761718750001	607.8307495117189	-616.4442138671876	-372.9903564453126	572.6665039062501	-579.1209106445314	
877	4.38	-6.039381980895998	1269.358276367188	-648.9788818359376	-135.0908355712891	1249.943969726563	-793.5474853515627	-141.1656341552735	1244.604125976563	-653.8364868164064	-198.7013854980469	1119.406982421875	-712.2790527343751	-387.6359863281251	915.362487792969	-728.2192382812501	-87.3207244873047	1021.247497558594	-711.3009033203126	-116.1982345581055	1107.631469726563	-836.050964355469	-3.080478906631471	1071.761840820313	-895.5864868164065	21.94205284118653	1057.300659179688	-856.2907714843752	61.78493881225587	1061.25439453125	-901.8673095703127	128.8675079345703	1023.022888183594	-937.9800415039065	120.493148803711	965.4892578125002	-927.189880371094	369.0823669433594	1027.650390625	-861.3391113281252	376.4555664062501	984.686218261719	-910.4354248046877	439.5198669433595	1049.142944335938	-866.6260986328127	-110.6761016845703	1094.914306640625	-607.8214721679689	-9.277082443237306	1026.628540039063	-498.9331359863282	19.11558532714844	1050.893432617188	-531.9921875000001	58.50268554687501	1016.842407226563	-500.3179016113282	136.5176849365235	1001.781494140625	-512.8856811523439	123.6838302612305	947.364685058594	-525.8535156250001	372.8632812500001	1037.490112304688	-600.2213745117189	389.883270263672	995.2300415039065	-556.6248168945314	451.5078735351564	1058.4755859375	-595.2585449218751	-405.0359191894532	673.4921875000001	-859.211364746094	-372.8422851562501	680.8303833007814	-660.8153686523439	-483.2857055664064	809.387878417969	-743.3090820312501	-510.4644775390626	787.0547485351565	-768.5835571289065	-505.3694152832032	783.6801757812502	-712.4796142578126	-485.1393127441407	442.3673400878907	-940.1857910156252	-438.3962707519532	369.5016174316407	-944.5637817382815	-394.7402954101564	373.7193908691407	-927.582946777344	-460.511444091797	312.1902160644532	-937.4165039062502	-466.9052734375001	234.8529815673829	-920.9407958984377	-574.3407592773439	155.2327728271485	-876.9409179687502	-622.9222412109376	208.0190429687501	-936.6242675781252	-624.1151733398439	176.2196044921875	-907.563171386719	-700.4871215820314	180.3107299804688	-867.3057250976565	-832.442565917969	252.4228515625001	-899.700866699219	-817.3635253906252	247.2100677490235	-815.123718261719	-864.001892089844	322.6225280761719	-857.798522949219	-899.769226074219	118.0406799316407	-795.6191406250002	-906.5974731445315	111.5152969360352	-839.2172851562502	-932.2564086914065	147.8265838623047	-893.507995605469	-310.1852416992188	578.2717895507814	-596.5371093750001	-254.6782531738282	517.0092773437501	-601.1459960937501	-158.3267669677735	409.4696350097657	-656.3135375976564	-191.2503662109375	259.1716613769532	-736.9293823242189	-270.5982666015626	209.1808166503907	-676.4874877929689	-245.6704559326172	191.2036895751953	-716.2175292968751	-284.8740844726563	174.6744995117188	-757.4599609375001	-376.1504211425782	124.9333419799805	-706.4810180664064	-364.6156921386719	133.010726928711	-784.617614746094	-457.8255004882814	102.0006637573242	-760.7531738281251	-256.7824707031251	54.4403762817383	-787.147888183594	-252.0779418945313	58.45071411132814	-741.6994628906251	-292.0531005859376	48.50557708740236	-686.8821411132814	-302.0252685546876	607.8182983398439	-616.5017700195314	-372.9899291992188	572.5484008789064	-579.1209106445314	
